# xmcd CD database file
# Copyright (C) 1996 Ti Kan
#
# Track frame offsets:
#  182
#  13615
#  26017
#  38992
#  51932
#  63230
#  75087
#  88810
#  102507
#  115232
#  129742
#  144907
#  156862
#  170035
#  183680
#  195575
#  206660
#  218980
#  230205
#  244525
#  257195
#  270985
#  285675
#
# Disc length: 3990 seconds
#
# Revision: 1
# Processed by: cddbd v1.4b41PL1 Copyright (c) Steve Scherf et al.
# Submitted via: CDWizzard Release:4.12
#
DISCID=510f9417
DTITLE=Blind Blake - Ragtime Guitar's Foremost Fingerpicker
DYEAR=1900
DGENRE=
TTITLE0=Diddie Wa Diddie
TTITLE1=Come On Boys Let's Do That Messin' Around
TTITLE2=Southern Rag
TTITLE3=Police Dog Blues
TTITLE4=C.C. Pill Blues
TTITLE5=Hard Pushing Papa
TTITLE6=Rope Stretching Blues
TTITLE7=Skeedie Loo Doo Blues
TTITLE8=Chump Man Blues
TTITLE9=Hastings Street
TTITLE10=Georgia Bound
TTITLE11=Righteous Blues
TTITLE12=Too Tight Blues
TTITLE13=Blind Arthur's Breakdown
TTITLE14=One Time Blues
TTITLE15=Playing Policy Blues
TTITLE16=You Gonna Quit Me Blues
TTITLE17=Bad Feeling Blues
TTITLE18=Hey Hey Daddy Blues
TTITLE19=Black Dog Blues
TTITLE20=Seaboard Stomp
TTITLE21=Sweet Papa Low Down
TTITLE22=Sweet Jivin' Mama
EXTD=Yazoo 1068\n\n
EXTT0=
EXTT1=
EXTT2=
EXTT3=
EXTT4=
EXTT5=
EXTT6=
EXTT7=
EXTT8=
EXTT9=
EXTT10=
EXTT11=
EXTT12=
EXTT13=
EXTT14=
EXTT15=
EXTT16=
EXTT17=
EXTT18=
EXTT19=
EXTT20=
EXTT21=
EXTT22=
PLAYORDER=
